# xmcd CD database file
#
# Track frame offsets:
#	150
#	15545
#	33402
#	56245
#	75540
#	92087
#	111920
#	133122
#	139982
#	157787
#	180497
#	204450
#	222490
#	241447
#	265537
#	281152
#	297927
#	311067
#
# Disc length: 4400 seconds
#
# Revision: 0
# Processed by: cddbd v1.5.1PL0 Copyright (c) Steve Scherf et al.
# Submitted via: CDex 1.51
#
DISCID=09112e12
DTITLE=The Notorious B.I.G. - Ready To Die
DYEAR=1994
DGENRE=Hip Hop
TTITLE0=Intro
TTITLE1=Things Done Changed
TTITLE2=Gimme The Loot
TTITLE3=Machine Gun Funk
TTITLE4=Warning
TTITLE5=Ready To Die
TTITLE6=One More Chance
TTITLE7=#!*@Me(Intrelude)
TTITLE8=The What
TTITLE9=Juicy
TTITLE10=Everyday Struggle
TTITLE11=Me and My Bitch
TTITLE12=Big Poppa
TTITLE13=Respect
TTITLE14=Friend Of Mine
TTITLE15=Unbelievable
TTITLE16=Suicidal Thoughts
TTITLE17=Big Poppa (Dirty Mix)
EXTD=YEAR: 1994
EXTT0=
EXTT1=
EXTT2=
EXTT3=
EXTT4=
EXTT5=
EXTT6=
EXTT7=
EXTT8=
EXTT9=
EXTT10=
EXTT11=
EXTT12=
EXTT13=
EXTT14=
EXTT15=
EXTT16=
EXTT17=
PLAYORDER=
